{
    "asset" : {
        "generator" : "Khronos glTF Blender I/O v3.3.27",
        "version" : "2.0"
    },
    "scene" : 0,
    "scenes" : [
        {
            "name" : "Scene",
            "nodes" : [
                0
            ]
        }
    ],
    "nodes" : [
        {
            "mesh" : 0,
            "name" : "GLOCK",
            "rotation" : [
                0,
                -0.1581580638885498,
                0,
                0.9874138236045837
            ],
            "scale" : [
                0.3199999928474426,
                1,
                1.059999942779541
            ],
            "translation" : [
                -1.631126046180725,
                0,
                1.197908639907837
            ]
        }
    ],
    "meshes" : [
        {
            "name" : "Plane.005",
            "primitives" : [
                {
                    "attributes" : {
                        "POSITION" : 0,
                        "NORMAL" : 1,
                        "TEXCOORD_0" : 2
                    },
                    "indices" : 3
                }
            ]
        }
    ],
    "accessors" : [
        {
            "bufferView" : 0,
            "componentType" : 5126,
            "count" : 1202,
            "max" : [
                8.880346298217773,
                0.24131445586681366,
                1.1449743509292603
            ],
            "min" : [
                -3.5554792881011963,
                -0.19819211959838867,
                -4.400582790374756
            ],
            "type" : "VEC3"
        },
        {
            "bufferView" : 1,
            "componentType" : 5126,
            "count" : 1202,
            "type" : "VEC3"
        },
        {
            "bufferView" : 2,
            "componentType" : 5126,
            "count" : 1202,
            "type" : "VEC2"
        },
        {
            "bufferView" : 3,
            "componentType" : 5123,
            "count" : 1980,
            "type" : "SCALAR"
        }
    ],
    "bufferViews" : [
        {
            "buffer" : 0,
            "byteLength" : 14424,
            "byteOffset" : 0,
            "target" : 34962
        },
        {
            "buffer" : 0,
            "byteLength" : 14424,
            "byteOffset" : 14424,
            "target" : 34962
        },
        {
            "buffer" : 0,
            "byteLength" : 9616,
            "byteOffset" : 28848,
            "target" : 34962
        },
        {
            "buffer" : 0,
            "byteLength" : 3960,
            "byteOffset" : 38464,
            "target" : 34963
        }
    ],
    "buffers" : [
        {
            "byteLength" : 42424,
            "uri" : "data:application/octet-stream;base64,"
        }
    ]
}
